<svg width="133" height="48" viewBox="0 0 133 48" fill="none" xmlns="http://www.w3.org/2000/svg">
<path d="M47.2554 21.1192C47.2554 17.2235 50.1399 14.5033 55.3819 14.5033C58.5804 14.5033 61.1977 15.5089 62.6157 16.494C62.8186 16.6346 63.1806 16.9759 62.9636 17.6105C62.6854 18.2941 62.1752 19.322 61.8091 19.9898C61.5961 20.3789 61.0519 20.3276 60.7732 20.1885C59.7632 19.6845 58.1065 18.832 56.5847 18.6747C56.1994 18.6334 55.8117 18.6169 55.4241 18.6253C54.0839 18.6548 52.9641 19.113 52.5698 20.1199C52.4925 20.3104 52.4494 20.5127 52.4424 20.7178C52.4056 22.0446 54.2809 22.5244 56.5527 22.9088C60.7761 23.6213 63.9714 24.8406 63.9714 29.1212C63.9714 32.7563 61.0375 36.0416 55.289 35.9409C51.4994 35.8654 48.8109 34.6045 47.3702 33.381C47.3211 33.3395 46.7727 32.7895 47.0666 32.128C47.403 31.2765 47.9709 30.3006 48.4165 29.7824C48.6643 29.4495 49.3181 29.3967 49.658 29.6041C50.8456 30.3308 52.7999 31.496 55.0528 31.5733C55.2306 31.5793 55.4068 31.5804 55.5798 31.5759C57.6062 31.5275 58.8322 30.7709 58.8066 29.4963C58.7847 28.3735 57.178 27.7175 54.6194 27.2427C50.5388 26.4858 47.2559 25.1613 47.2559 21.1192M84.3273 26.6662C81.4497 26.7033 78.8114 27.4778 78.7353 29.6922C78.7345 31.4494 80.1821 32.3126 82.2138 32.1995C84.1628 32.0147 85.6492 31.1823 86.3041 30.0779C86.5462 29.6685 86.5831 28.1369 86.5684 27.4822C86.5647 27.3429 86.2849 27.0792 86.1623 27.0285C85.5509 26.7748 85.0984 26.6964 84.327 26.6657M74.7524 17.7433C76.098 16.5576 78.766 14.712 83.018 14.8093C88.6293 14.9242 91.5936 17.5145 91.8697 23.7112C91.9834 26.2666 91.7949 33.3944 91.7501 35.1703C91.7434 35.4251 91.6558 35.6012 91.3072 35.6078C90.3831 35.6443 88.2483 35.6299 87.2674 35.6172C86.7724 35.5936 86.715 35.3517 86.7086 35.0985C86.7043 34.9329 86.6899 34.4418 86.6795 34.0414C86.6739 33.829 86.4712 33.835 86.4194 33.8894C85.1032 35.2734 82.9475 35.9417 80.6552 35.9417C77.171 35.9417 73.6975 33.9234 73.7082 29.9264C73.7189 25.8331 76.6664 23.814 79.9044 23.3378C81.9778 23.0339 84.315 23.3042 86.0849 23.9967C86.1981 24.0414 86.4293 23.9767 86.4312 23.8187C86.4384 23.2971 86.4128 22.3031 86.311 21.8319C86.0513 20.6315 85.0343 19.6656 82.8979 19.4053C82.4579 19.352 82.0149 19.3344 81.5715 19.3691C79.8732 19.5005 77.8294 20.8045 76.983 21.2927C76.7839 21.4073 76.472 21.3235 76.3711 21.1954C75.8772 20.5671 74.6357 18.7294 74.538 18.4358C74.4403 18.1429 74.578 17.8963 74.7518 17.7422L74.7524 17.7433ZM93.7199 25.3632C93.6865 19.6543 97.726 14.8382 104.285 14.7959C108.378 14.7696 111.352 16.5968 111.876 17.4586C111.983 17.661 111.928 17.83 111.854 18.0338C111.508 18.7541 110.632 20.1459 110.009 20.9347C109.743 21.2706 109.455 20.9828 109.12 20.7632C108.19 20.1533 106.423 19.4074 104.684 19.4074C101.529 19.408 99.1801 21.538 99.2062 25.4568C99.2308 29.2174 101.481 31.2841 104.695 31.359C106.375 31.4005 108.003 30.4496 108.879 29.6706C109.154 29.4343 109.438 29.5526 109.752 29.7945C110.369 30.4152 111.254 31.3735 111.744 32.0331C112.065 32.3996 111.825 32.7582 111.709 32.9022C110.379 34.5604 107.809 35.9559 104.408 35.9748C97.2861 36.024 93.7533 31.0932 93.7204 25.364M127.715 35.7174C128.049 35.6927 131.616 35.2079 132.711 34.961C132.983 34.9 133.079 34.675 132.927 34.4521C132.316 33.5492 130.709 30.9854 129.025 28.6903C127.476 26.58 125.844 24.7239 125.316 24.0098C125.188 23.8363 125.195 23.6654 125.335 23.5308C126.339 22.5633 130.539 18.5081 132.118 16.8334C132.73 16.1819 132.363 15.9016 131.843 15.7494C130.84 15.455 129.218 15.088 128.295 14.8963C127.906 14.8153 127.438 14.8437 127.098 15.1881C125.519 16.638 120.7 21.4005 119.261 22.8241C119.002 23.081 118.851 23.0239 118.85 22.6569C118.838 19.9122 118.783 8.16099 118.684 6.22813C118.677 5.97259 118.365 5.77857 118.189 5.76937C117.284 5.72283 114.999 5.70943 114.098 5.76148C113.846 5.78961 113.605 6.04279 113.583 6.25679C113.375 9.34747 113.671 32.0355 113.795 35.2092C113.803 35.4387 113.977 35.6167 114.198 35.6296C115.097 35.6809 117.319 35.6774 118.356 35.6583C118.867 35.6583 118.929 35.3049 118.929 35.3049L119.006 29.2169C119.006 29.2169 119.059 28.9461 119.144 28.8567C119.51 28.4689 120.522 27.401 120.953 26.9882C121.057 26.8891 121.22 26.8962 121.326 27.0364C121.838 27.7173 123.3 29.9309 124.655 31.9079C125.9 33.7241 127.062 35.3359 127.143 35.4498C127.331 35.7127 127.55 35.7232 127.715 35.7182V35.7174H127.715ZM67.0463 35.6964C67.36 35.7066 69.7402 35.704 70.7948 35.7027C71.1499 35.7095 71.3344 35.4448 71.3462 35.2111C71.5702 30.7612 71.4743 9.57489 71.3328 6.22945C71.3211 5.94025 71.1953 5.83168 70.9948 5.80539C70.0897 5.68603 67.5176 5.7139 66.6931 5.92632C66.5318 5.9676 66.4368 6.08827 66.4317 6.24338C66.2299 14.8666 66.366 34.7473 66.4088 35.1238C66.4512 35.5008 66.6515 35.6832 67.0469 35.6964H67.0463Z" fill="white"/>
<path d="M3.34614 26.8487C1.87931 26.8598 0.636755 25.999 0.178606 24.6556C0.16161 24.6049 0.145765 24.5537 0.131082 24.5023C-0.368183 22.7819 0.599911 20.982 2.33506 20.4058L30.1658 11.2244C30.4962 11.1303 30.8382 11.0811 31.1822 11.0782C32.688 11.0667 33.9647 11.9463 34.4341 13.3182L34.4757 13.4507C34.9964 15.2426 33.7028 16.8421 32.1529 17.3548C32.1519 17.3556 31.8699 17.4494 4.47656 26.6592C4.11245 26.7814 3.73081 26.8454 3.34614 26.8487Z" fill="#70CADB"/>
<path d="M7.98513 40.3264C6.50682 40.3369 5.25999 39.4883 4.80718 38.164C4.79 38.1136 4.77397 38.0629 4.75913 38.0118C4.25292 36.2709 5.21995 34.4521 6.96097 33.875L34.7927 24.6095C35.1524 24.4912 35.5238 24.4308 35.8973 24.4273C37.3796 24.4163 38.6819 25.3081 39.1414 26.6473L39.1841 26.7866C39.453 27.7123 39.2941 28.7526 38.7596 29.5737C38.3613 30.1841 37.1048 30.7215 37.1048 30.7215L9.16735 40.1279C8.78632 40.2549 8.38736 40.3221 7.98513 40.3269V40.3264Z" fill="#E01765"/>
<path d="M31.1538 40.3848C30.4324 40.3916 29.7273 40.1734 29.1396 39.7614C28.5518 39.3495 28.1116 38.7649 27.8819 38.0915L18.5934 10.9231L18.547 10.7706C18.0437 9.03808 19.0115 7.23089 20.7461 6.65513C21.0932 6.54024 21.452 6.4803 21.8133 6.47715C22.3499 6.4732 22.8692 6.5923 23.3583 6.83022C23.7612 7.02642 24.1208 7.29913 24.4163 7.63264C24.7117 7.96616 24.9374 8.35391 25.0801 8.7736L34.3678 35.9396L34.3948 36.0269C34.9164 37.8257 33.9508 39.6339 32.2161 40.2097C31.8735 40.3224 31.515 40.3815 31.1538 40.3848Z" fill="#E8A723"/>
<path d="M17.3486 44.9613C16.6268 44.9681 15.9214 44.7497 15.3334 44.3374C14.7453 43.9251 14.305 43.34 14.0754 42.6662L4.78931 15.4988C4.64543 15.0797 4.58691 14.6368 4.6171 14.1953C4.64729 13.7539 4.76561 13.3227 4.96527 12.9264C5.16493 12.53 5.44201 12.1763 5.78066 11.8856C6.11932 11.5948 6.51288 11.3727 6.93882 11.2319C7.28196 11.119 7.64097 11.0597 8.00276 11.0563C8.72428 11.0493 9.42952 11.2674 10.0174 11.6794C10.6053 12.0914 11.0456 12.676 11.2752 13.3496L20.5616 40.518C20.7055 40.9373 20.764 41.3805 20.7337 41.8221C20.7034 42.2637 20.5849 42.6951 20.385 43.0916C20.1851 43.488 19.9077 43.8418 19.5688 44.1325C19.2298 44.4232 18.8359 44.6451 18.4096 44.7857C18.0672 44.8987 17.7087 44.9579 17.3476 44.961L17.3486 44.9613Z" fill="#3EB890"/>
<path d="M26.5739 34.2664L33.0505 32.0859L30.9333 25.8945L24.4492 28.0522L26.5739 34.2664Z" fill="#CC2027"/>
<path d="M12.7881 38.9077L19.2641 36.7275L17.1309 30.4888L10.6484 32.6472L12.7881 38.9077Z" fill="#361238"/>
<path d="M21.9599 20.7811L28.437 18.6034L26.3446 12.4844L19.8555 14.6252L21.9599 20.7811Z" fill="#65863A"/>
<path d="M8.17702 25.416L14.6541 23.2384L12.5361 17.0413L6.047 19.1818L8.17702 25.416Z" fill="#1A937D"/>
</svg>
