<!DOCTYPE svg PUBLIC "-//W3C//DTD SVG 1.1//EN" "http://www.w3.org/Graphics/SVG/1.1/DTD/svg11.dtd">
<!-- Uploaded to: SVG Repo, www.svgrepo.com, Transformed by: SVG Repo Mixer Tools -->
<svg width="800px" height="800px" viewBox="0 0 64 64" id="Layer_1" version="1.1" xml:space="preserve" xmlns="http://www.w3.org/2000/svg" xmlns:xlink="http://www.w3.org/1999/xlink" fill="#000000">
<g id="SVGRepo_bgCarrier" stroke-width="0"/>
<g id="SVGRepo_tracerCarrier" stroke-linecap="round" stroke-linejoin="round"/>
<g id="SVGRepo_iconCarrier"> <g> <g> <g> <circle cx="32" cy="32" r="5.629" style="fill:#BABCBF;"/> </g> <g> <path d="M32,34.816c-1.555,0-2.816-1.261-2.816-2.816V17.2c0-1.555,1.261-2.816,2.816-2.816 c1.555,0,2.816,1.261,2.816,2.816V32C34.816,33.555,33.555,34.816,32,34.816z" style="fill:#BABCBF;"/> </g> <g> <path d="M24.942,41.874c-0.721,0-1.441-0.275-1.991-0.825c-1.1-1.1-1.1-2.883,0-3.982l7.058-7.058 c1.099-1.1,2.883-1.1,3.982,0c1.1,1.1,1.1,2.883,0,3.982l-7.058,7.058C26.383,41.599,25.662,41.874,24.942,41.874z" style="fill:#BABCBF;"/> </g> </g> <g> <path d="M32,59.5C16.837,59.5,4.5,47.164,4.5,32C4.5,16.836,16.837,4.5,32,4.5S59.5,16.836,59.5,32 C59.5,47.164,47.163,59.5,32,59.5z M32,10.132c-12.058,0-21.868,9.81-21.868,21.868c0,12.058,9.81,21.868,21.868,21.868 S53.868,44.058,53.868,32C53.868,19.942,44.058,10.132,32,10.132z" style="fill:#BABCBF;"/> </g> </g> </g>
</svg>